<svg xmlns="http://www.w3.org/2000/svg" xmlns:xlink="http://www.w3.org/1999/xlink" contentStyleType="text/css" data-diagram-type="CLASS" height="995px" preserveAspectRatio="none" style="width:2250px;height:995px;background:#1B1B1B;" version="1.1" viewBox="0 0 2250 995" width="2250px" zoomAndPan="magnify"><title>Modelo Relacional - GAET</title><defs/><g><rect fill="#1B1B1B" height="995" style="stroke:none;stroke-width:1;" width="2250" x="0" y="0"/><g class="title" data-source-line="2"><text fill="#FFFFFF" font-family="sans-serif" font-size="14" font-weight="bold" lengthAdjust="spacing" textLength="200.8057" x="1017.7152" y="22.9951">Modelo Relacional - GAET</text></g><!--class perfil_usuario--><g class="entity" data-entity="perfil_usuario" data-source-line="4" data-uid="ent0002" id="entity_perfil_usuario"><rect fill="#313139" height="80.5938" rx="2.5" ry="2.5" style="stroke:#E7E7E7;stroke-width:0.5;" width="304.6875" x="1936.83" y="908.2069"/><ellipse cx="2037.5268" cy="924.2069" fill="#2E5233" rx="11" ry="11" style="stroke:#E7E7E7;stroke-width:1;"/><path d="M2041.6362,930.2069 L2033.9174,930.2069 L2033.9174,917.8163 L2041.6362,917.8163 L2041.6362,919.9725 L2036.3705,919.9725 L2036.3705,922.6444 L2041.1362,922.6444 L2041.1362,924.8006 L2036.3705,924.8006 L2036.3705,928.0506 L2041.6362,928.0506 L2041.6362,930.2069 Z " fill="#FFFFFF"/><text fill="#FFFFFF" font-family="sans-serif" font-size="14" lengthAdjust="spacing" textLength="94.7939" x="2058.0268" y="929.0536">perfil_usuario</text><line style="stroke:#E7E7E7;stroke-width:0.5;" x1="1937.83" x2="2240.5175" y1="940.2069" y2="940.2069"/><ellipse cx="1947.83" cy="953.8553" fill="#000000" rx="3" ry="3" style="stroke:#000000;stroke-width:1;"/><text fill="#FFFFFF" font-family="sans-serif" font-size="14" lengthAdjust="spacing" textLength="151.3408" x="1956.83" y="957.202">id_perfil_usuario : INT</text><line style="stroke:#E7E7E7;stroke-width:0.5;" x1="1937.83" x2="2240.5175" y1="964.5038" y2="964.5038"/><text fill="#FFFFFF" font-family="sans-serif" font-size="14" lengthAdjust="spacing" textLength="292.6875" x="1942.83" y="981.4989">descripcion_perfil_usuario : VARCHAR(80)</text></g><!--class persona--><g class="entity" data-entity="persona" data-source-line="9" data-uid="ent0003" id="entity_persona"><rect fill="#313139" height="210.9688" rx="2.5" ry="2.5" style="stroke:#E7E7E7;stroke-width:0.5;" width="308.126" x="1935.11" y="620.2369"/><ellipse cx="2056.6393" cy="636.2369" fill="#2E5233" rx="11" ry="11" style="stroke:#E7E7E7;stroke-width:1;"/><path d="M2060.7487,642.2369 L2053.0299,642.2369 L2053.0299,629.8463 L2060.7487,629.8463 L2060.7487,632.0025 L2055.483,632.0025 L2055.483,634.6744 L2060.2487,634.6744 L2060.2487,636.8306 L2055.483,636.8306 L2055.483,640.0806 L2060.7487,640.0806 L2060.7487,642.2369 Z " fill="#FFFFFF"/><text fill="#FFFFFF" font-family="sans-serif" font-size="14" lengthAdjust="spacing" textLength="56.5674" x="2077.1393" y="641.0836">persona</text><line style="stroke:#E7E7E7;stroke-width:0.5;" x1="1936.11" x2="2242.236" y1="652.2369" y2="652.2369"/><ellipse cx="1946.11" cy="665.8853" fill="#000000" rx="3" ry="3" style="stroke:#000000;stroke-width:1;"/><text fill="#FFFFFF" font-family="sans-serif" font-size="14" lengthAdjust="spacing" textLength="120.4561" x="1955.11" y="669.232">rut_persona : INT</text><text fill="#FFFFFF" font-family="sans-serif" font-size="14" lengthAdjust="spacing" textLength="148.9414" x="1955.11" y="685.5289">fecha_ingreso : DATE</text><text fill="#FFFFFF" font-family="sans-serif" font-size="14" lengthAdjust="spacing" textLength="151.3408" x="1955.11" y="701.8257">id_perfil_usuario : INT</text><line style="stroke:#E7E7E7;stroke-width:0.5;" x1="1936.11" x2="2242.236" y1="709.1275" y2="709.1275"/><text fill="#FFFFFF" font-family="sans-serif" font-size="14" lengthAdjust="spacing" textLength="209.7949" x="1941.11" y="726.1226">rut_dv_persona : VARCHAR(1)</text><text fill="#FFFFFF" font-family="sans-serif" font-size="14" lengthAdjust="spacing" textLength="228.7441" x="1941.11" y="742.4195">nombre_persona : VARCHAR(30)</text><text fill="#FFFFFF" font-family="sans-serif" font-size="14" lengthAdjust="spacing" textLength="291.375" x="1941.11" y="758.7164">apellido_paterno_persona : VARCHAR(30)</text><text fill="#FFFFFF" font-family="sans-serif" font-size="14" lengthAdjust="spacing" textLength="296.126" x="1941.11" y="775.0132">apellido_materno_persona : VARCHAR(30)</text><text fill="#FFFFFF" font-family="sans-serif" font-size="14" lengthAdjust="spacing" textLength="220.0625" x="1941.11" y="791.3101">email_pesonal : VARCHAR(100)</text><text fill="#FFFFFF" font-family="sans-serif" font-size="14" lengthAdjust="spacing" textLength="245.3965" x="1941.11" y="807.607">email_corporativo : VARCHAR(100)</text><text fill="#FFFFFF" font-family="sans-serif" font-size="14" lengthAdjust="spacing" textLength="168.3828" x="1941.11" y="823.9039">telefono : VARCHAR(15)</text></g><!--class cliente--><g class="entity" data-entity="cliente" data-source-line="22" data-uid="ent0004" id="entity_cliente"><rect fill="#313139" height="96.8906" rx="2.5" ry="2.5" style="stroke:#E7E7E7;stroke-width:0.5;" width="242.2207" x="10.06" y="677.2769"/><ellipse cx="103.3876" cy="693.2769" fill="#2E5233" rx="11" ry="11" style="stroke:#E7E7E7;stroke-width:1;"/><path d="M107.497,699.2769 L99.7783,699.2769 L99.7783,686.8863 L107.497,686.8863 L107.497,689.0425 L102.2314,689.0425 L102.2314,691.7144 L106.997,691.7144 L106.997,693.8706 L102.2314,693.8706 L102.2314,697.1206 L107.497,697.1206 L107.497,699.2769 Z " fill="#FFFFFF"/><text fill="#FFFFFF" font-family="sans-serif" font-size="14" lengthAdjust="spacing" textLength="47.0654" x="123.8876" y="698.1236">cliente</text><line style="stroke:#E7E7E7;stroke-width:0.5;" x1="11.06" x2="251.2807" y1="709.2769" y2="709.2769"/><ellipse cx="21.06" cy="722.9253" fill="#000000" rx="3" ry="3" style="stroke:#000000;stroke-width:1;"/><text fill="#FFFFFF" font-family="sans-serif" font-size="14" lengthAdjust="spacing" textLength="110.9541" x="30.06" y="726.272">rut_cliente : INT</text><text fill="#FFFFFF" font-family="sans-serif" font-size="14" lengthAdjust="spacing" textLength="216.2207" x="30.06" y="742.5689">descripcion_cliente : VARCHAR</text><line style="stroke:#E7E7E7;stroke-width:0.5;" x1="11.06" x2="251.2807" y1="749.8706" y2="749.8706"/><text fill="#FFFFFF" font-family="sans-serif" font-size="14" lengthAdjust="spacing" textLength="200.293" x="16.06" y="766.8657">rut_dv_cliente : VARCHAR(1)</text></g><!--class local--><g class="entity" data-entity="local" data-source-line="28" data-uid="ent0005" id="entity_local"><rect fill="#313139" height="162.0781" rx="2.5" ry="2.5" style="stroke:#E7E7E7;stroke-width:0.5;" width="240.7305" x="10.8" y="332.2669"/><ellipse cx="110.6047" cy="348.2669" fill="#2E5233" rx="11" ry="11" style="stroke:#E7E7E7;stroke-width:1;"/><path d="M114.7141,354.2669 L106.9953,354.2669 L106.9953,341.8763 L114.7141,341.8763 L114.7141,344.0325 L109.4484,344.0325 L109.4484,346.7044 L114.2141,346.7044 L114.2141,348.8606 L109.4484,348.8606 L109.4484,352.1106 L114.7141,352.1106 L114.7141,354.2669 Z " fill="#FFFFFF"/><text fill="#FFFFFF" font-family="sans-serif" font-size="14" lengthAdjust="spacing" textLength="32.6211" x="131.1047" y="353.1136">local</text><line style="stroke:#E7E7E7;stroke-width:0.5;" x1="11.8" x2="250.5305" y1="364.2669" y2="364.2669"/><ellipse cx="21.8" cy="377.9153" fill="#000000" rx="3" ry="3" style="stroke:#000000;stroke-width:1;"/><text fill="#FFFFFF" font-family="sans-serif" font-size="14" lengthAdjust="spacing" textLength="89.168" x="30.8" y="381.262">id_local : INT</text><text fill="#FFFFFF" font-family="sans-serif" font-size="14" lengthAdjust="spacing" textLength="201.5781" x="30.8" y="397.5589">direccion_numero_local : INT</text><text fill="#FFFFFF" font-family="sans-serif" font-size="14" lengthAdjust="spacing" textLength="166.3115" x="30.8" y="413.8557">region_local : VARCHAR</text><text fill="#FFFFFF" font-family="sans-serif" font-size="14" lengthAdjust="spacing" textLength="110.9541" x="30.8" y="430.1526">rut_cliente : INT</text><line style="stroke:#E7E7E7;stroke-width:0.5;" x1="11.8" x2="250.5305" y1="437.4544" y2="437.4544"/><text fill="#FFFFFF" font-family="sans-serif" font-size="14" lengthAdjust="spacing" textLength="213.7051" x="16.8" y="454.4495">nombre_local : VARCHAR(100)</text><text fill="#FFFFFF" font-family="sans-serif" font-size="14" lengthAdjust="spacing" textLength="228.7305" x="16.8" y="470.7464">direcction_local : VARCHAR(100)</text><text fill="#FFFFFF" font-family="sans-serif" font-size="14" lengthAdjust="spacing" textLength="206.6914" x="16.8" y="487.0432">comuna_local : VARCHAR(50)</text></g><!--class contacto_local--><g class="entity" data-entity="contacto_local" data-source-line="38" data-uid="ent0006" id="entity_contacto_local"><rect fill="#313139" height="162.0781" rx="2.5" ry="2.5" style="stroke:#E7E7E7;stroke-width:0.5;" width="248.3389" x="7" y="44.2969"/><ellipse cx="76.6309" cy="60.2969" fill="#2E5233" rx="11" ry="11" style="stroke:#E7E7E7;stroke-width:1;"/><path d="M80.7402,66.2969 L73.0215,66.2969 L73.0215,53.9063 L80.7402,53.9063 L80.7402,56.0625 L75.4746,56.0625 L75.4746,58.7344 L80.2402,58.7344 L80.2402,60.8906 L75.4746,60.8906 L75.4746,64.1406 L80.7402,64.1406 L80.7402,66.2969 Z " fill="#FFFFFF"/><text fill="#FFFFFF" font-family="sans-serif" font-size="14" lengthAdjust="spacing" textLength="100.5771" x="97.1309" y="65.1436">contacto_local</text><line style="stroke:#E7E7E7;stroke-width:0.5;" x1="8" x2="254.3389" y1="76.2969" y2="76.2969"/><ellipse cx="18" cy="89.9453" fill="#000000" rx="3" ry="3" style="stroke:#000000;stroke-width:1;"/><text fill="#FFFFFF" font-family="sans-serif" font-size="14" lengthAdjust="spacing" textLength="117.5029" x="27" y="93.292">id_contacto : INT</text><text fill="#FFFFFF" font-family="sans-serif" font-size="14" lengthAdjust="spacing" textLength="89.168" x="27" y="109.5889">id_local : INT</text><line style="stroke:#E7E7E7;stroke-width:0.5;" x1="8" x2="254.3389" y1="116.8906" y2="116.8906"/><text fill="#FFFFFF" font-family="sans-serif" font-size="14" lengthAdjust="spacing" textLength="233.1328" x="13" y="133.8857">nombre_contacto : VARCHAR(30)</text><text fill="#FFFFFF" font-family="sans-serif" font-size="14" lengthAdjust="spacing" textLength="234.001" x="13" y="150.1826">apellido_contacto : VARCHAR(30)</text><text fill="#FFFFFF" font-family="sans-serif" font-size="14" lengthAdjust="spacing" textLength="226.3174" x="13" y="166.4795">email_contacto : VARCHAR(120)</text><text fill="#FFFFFF" font-family="sans-serif" font-size="14" lengthAdjust="spacing" textLength="218.2852" x="13" y="182.7764">cargo_contacto : VARCHAR(30)</text><text fill="#FFFFFF" font-family="sans-serif" font-size="14" lengthAdjust="spacing" textLength="236.3389" x="13" y="199.0732">telefono_contacto : VARCHAR(15)</text></g><!--class informe--><g class="entity" data-entity="informe" data-source-line="48" data-uid="ent0007" id="entity_informe"><rect fill="#313139" height="145.7813" rx="2.5" ry="2.5" style="stroke:#E7E7E7;stroke-width:0.5;" width="335.0732" x="287.63" y="652.8269"/><ellipse cx="423.7848" cy="668.8269" fill="#2E5233" rx="11" ry="11" style="stroke:#E7E7E7;stroke-width:1;"/><path d="M427.8942,674.8269 L420.1754,674.8269 L420.1754,662.4363 L427.8942,662.4363 L427.8942,664.5925 L422.6285,664.5925 L422.6285,667.2644 L427.3942,667.2644 L427.3942,669.4206 L422.6285,669.4206 L422.6285,672.6706 L427.8942,672.6706 L427.8942,674.8269 Z " fill="#FFFFFF"/><text fill="#FFFFFF" font-family="sans-serif" font-size="14" lengthAdjust="spacing" textLength="54.2637" x="444.2848" y="673.6736">informe</text><line style="stroke:#E7E7E7;stroke-width:0.5;" x1="288.63" x2="621.7032" y1="684.8269" y2="684.8269"/><ellipse cx="298.63" cy="698.4753" fill="#000000" rx="3" ry="3" style="stroke:#000000;stroke-width:1;"/><text fill="#FFFFFF" font-family="sans-serif" font-size="14" lengthAdjust="spacing" textLength="156.1465" x="307.63" y="701.822">id_informe : VARCHAR</text><line style="stroke:#E7E7E7;stroke-width:0.5;" x1="288.63" x2="621.7032" y1="709.1238" y2="709.1238"/><text fill="#FFFFFF" font-family="sans-serif" font-size="14" lengthAdjust="spacing" textLength="260.415" x="293.63" y="726.1189">comentatio_informe : VARCHAR(250)</text><text fill="#FFFFFF" font-family="sans-serif" font-size="14" lengthAdjust="spacing" textLength="304.6641" x="293.63" y="742.4157">firma_encargado_recepcion : VARCHAR(30)</text><text fill="#FFFFFF" font-family="sans-serif" font-size="14" lengthAdjust="spacing" textLength="322.2051" x="293.63" y="758.7126">nombre_encargado_recepcion : VARCHAR(30)</text><text fill="#FFFFFF" font-family="sans-serif" font-size="14" lengthAdjust="spacing" textLength="323.0732" x="293.63" y="775.0095">apellido_encargado_recepcion : VARCHAR(30)</text><text fill="#FFFFFF" font-family="sans-serif" font-size="14" lengthAdjust="spacing" textLength="307.3574" x="293.63" y="791.3064">cargo_encargado_recepcion : VARCHAR(30)</text></g><!--class area_cobro--><g class="entity" data-entity="area_cobro" data-source-line="57" data-uid="ent0008" id="entity_area_cobro"><rect fill="#313139" height="80.5938" rx="2.5" ry="2.5" style="stroke:#E7E7E7;stroke-width:0.5;" width="273.1533" x="657.59" y="685.4169"/><ellipse cx="750.9176" cy="701.4169" fill="#2E5233" rx="11" ry="11" style="stroke:#E7E7E7;stroke-width:1;"/><path d="M755.027,707.4169 L747.3083,707.4169 L747.3083,695.0263 L755.027,695.0263 L755.027,697.1825 L749.7614,697.1825 L749.7614,699.8544 L754.527,699.8544 L754.527,702.0106 L749.7614,702.0106 L749.7614,705.2606 L755.027,705.2606 L755.027,707.4169 Z " fill="#FFFFFF"/><text fill="#FFFFFF" font-family="sans-serif" font-size="14" lengthAdjust="spacing" textLength="77.998" x="771.4176" y="706.2636">area_cobro</text><line style="stroke:#E7E7E7;stroke-width:0.5;" x1="658.59" x2="929.7433" y1="717.4169" y2="717.4169"/><ellipse cx="668.59" cy="731.0653" fill="#000000" rx="3" ry="3" style="stroke:#000000;stroke-width:1;"/><text fill="#FFFFFF" font-family="sans-serif" font-size="14" lengthAdjust="spacing" textLength="134.5449" x="677.59" y="734.412">id_area_cobro : INT</text><text fill="#FFFFFF" font-family="sans-serif" font-size="14" lengthAdjust="spacing" textLength="247.1533" x="677.59" y="750.7089">descripcion_area_cobro : VARCHAR</text><line style="stroke:#E7E7E7;stroke-width:0.5;" x1="658.59" x2="929.7433" y1="758.0106" y2="758.0106"/></g><!--class tipo_tarea--><g class="entity" data-entity="tipo_tarea" data-source-line="62" data-uid="ent0009" id="entity_tipo_tarea"><rect fill="#313139" height="80.5938" rx="2.5" ry="2.5" style="stroke:#E7E7E7;stroke-width:0.5;" width="289.6484" x="965.35" y="685.4169"/><ellipse cx="1070.5004" cy="701.4169" fill="#2E5233" rx="11" ry="11" style="stroke:#E7E7E7;stroke-width:1;"/><path d="M1074.6098,707.4169 L1066.891,707.4169 L1066.891,695.0263 L1074.6098,695.0263 L1074.6098,697.1825 L1069.3441,697.1825 L1069.3441,699.8544 L1074.1098,699.8544 L1074.1098,702.0106 L1069.3441,702.0106 L1069.3441,705.2606 L1074.6098,705.2606 L1074.6098,707.4169 Z " fill="#FFFFFF"/><text fill="#FFFFFF" font-family="sans-serif" font-size="14" lengthAdjust="spacing" textLength="70.8477" x="1091.0004" y="706.2636">tipo_tarea</text><line style="stroke:#E7E7E7;stroke-width:0.5;" x1="966.35" x2="1253.9984" y1="717.4169" y2="717.4169"/><ellipse cx="976.35" cy="731.0653" fill="#000000" rx="3" ry="3" style="stroke:#000000;stroke-width:1;"/><text fill="#FFFFFF" font-family="sans-serif" font-size="14" lengthAdjust="spacing" textLength="127.3945" x="985.35" y="734.412">id_tipo_tarea : INT</text><line style="stroke:#E7E7E7;stroke-width:0.5;" x1="966.35" x2="1253.9984" y1="741.7138" y2="741.7138"/><text fill="#FFFFFF" font-family="sans-serif" font-size="14" lengthAdjust="spacing" textLength="277.6484" x="971.35" y="758.7089">descripcion_tipo_tarea : VARCHAR(100)</text></g><!--class estado_tarea--><g class="entity" data-entity="estado_tarea" data-source-line="67" data-uid="ent0010" id="entity_estado_tarea"><rect fill="#313139" height="80.5938" rx="2.5" ry="2.5" style="stroke:#E7E7E7;stroke-width:0.5;" width="301.3379" x="1289.5" y="685.4169"/><ellipse cx="1390.1968" cy="701.4169" fill="#2E5233" rx="11" ry="11" style="stroke:#E7E7E7;stroke-width:1;"/><path d="M1394.3062,707.4169 L1386.5874,707.4169 L1386.5874,695.0263 L1394.3062,695.0263 L1394.3062,697.1825 L1389.0405,697.1825 L1389.0405,699.8544 L1393.8062,699.8544 L1393.8062,702.0106 L1389.0405,702.0106 L1389.0405,705.2606 L1394.3062,705.2606 L1394.3062,707.4169 Z " fill="#FFFFFF"/><text fill="#FFFFFF" font-family="sans-serif" font-size="14" lengthAdjust="spacing" textLength="91.4443" x="1410.6968" y="706.2636">estado_tarea</text><line style="stroke:#E7E7E7;stroke-width:0.5;" x1="1290.5" x2="1589.8379" y1="717.4169" y2="717.4169"/><ellipse cx="1300.5" cy="731.0653" fill="#000000" rx="3" ry="3" style="stroke:#000000;stroke-width:1;"/><text fill="#FFFFFF" font-family="sans-serif" font-size="14" lengthAdjust="spacing" textLength="147.9912" x="1309.5" y="734.412">id_estado_tarea : INT</text><line style="stroke:#E7E7E7;stroke-width:0.5;" x1="1290.5" x2="1589.8379" y1="741.7138" y2="741.7138"/><text fill="#FFFFFF" font-family="sans-serif" font-size="14" lengthAdjust="spacing" textLength="289.3379" x="1295.5" y="758.7089">descripcion_estado_tarea : VARCHAR(50)</text></g><!--class tipo_hardware--><g class="entity" data-entity="tipo_hardware" data-source-line="72" data-uid="ent0011" id="entity_tipo_hardware"><rect fill="#313139" height="80.5938" rx="2.5" ry="2.5" style="stroke:#E7E7E7;stroke-width:0.5;" width="264.0479" x="1383.15" y="908.2069"/><ellipse cx="1460.7618" cy="924.2069" fill="#2E5233" rx="11" ry="11" style="stroke:#E7E7E7;stroke-width:1;"/><path d="M1464.8712,930.2069 L1457.1524,930.2069 L1457.1524,917.8163 L1464.8712,917.8163 L1464.8712,919.9725 L1459.6056,919.9725 L1459.6056,922.6444 L1464.3712,922.6444 L1464.3712,924.8006 L1459.6056,924.8006 L1459.6056,928.0506 L1464.8712,928.0506 L1464.8712,930.2069 Z " fill="#FFFFFF"/><text fill="#FFFFFF" font-family="sans-serif" font-size="14" lengthAdjust="spacing" textLength="100.3242" x="1481.2618" y="929.0536">tipo_hardware</text><line style="stroke:#E7E7E7;stroke-width:0.5;" x1="1384.15" x2="1646.1979" y1="940.2069" y2="940.2069"/><ellipse cx="1394.15" cy="953.8553" fill="#000000" rx="3" ry="3" style="stroke:#000000;stroke-width:1;"/><text fill="#FFFFFF" font-family="sans-serif" font-size="14" lengthAdjust="spacing" textLength="110.7012" x="1403.15" y="957.202">id_tipo_hw : INT</text><line style="stroke:#E7E7E7;stroke-width:0.5;" x1="1384.15" x2="1646.1979" y1="964.5038" y2="964.5038"/><text fill="#FFFFFF" font-family="sans-serif" font-size="14" lengthAdjust="spacing" textLength="252.0479" x="1389.15" y="981.4989">descripcion_tipo_hw : VARCHAR(80)</text></g><!--class sistema_operativo--><g class="entity" data-entity="sistema_operativo" data-source-line="77" data-uid="ent0012" id="entity_sistema_operativo"><rect fill="#313139" height="80.5938" rx="2.5" ry="2.5" style="stroke:#E7E7E7;stroke-width:0.5;" width="200.0361" x="1682.15" y="908.2069"/><ellipse cx="1714.9742" cy="924.2069" fill="#2E5233" rx="11" ry="11" style="stroke:#E7E7E7;stroke-width:1;"/><path d="M1719.0836,930.2069 L1711.3648,930.2069 L1711.3648,917.8163 L1719.0836,917.8163 L1719.0836,919.9725 L1713.818,919.9725 L1713.818,922.6444 L1718.5836,922.6444 L1718.5836,924.8006 L1713.818,924.8006 L1713.818,928.0506 L1719.0836,928.0506 L1719.0836,930.2069 Z " fill="#FFFFFF"/><text fill="#FFFFFF" font-family="sans-serif" font-size="14" lengthAdjust="spacing" textLength="128.4268" x="1732.9352" y="929.0536">sistema_operativo</text><line style="stroke:#E7E7E7;stroke-width:0.5;" x1="1683.15" x2="1881.1861" y1="940.2069" y2="940.2069"/><ellipse cx="1693.15" cy="953.8553" fill="#000000" rx="3" ry="3" style="stroke:#000000;stroke-width:1;"/><text fill="#FFFFFF" font-family="sans-serif" font-size="14" lengthAdjust="spacing" textLength="72.4063" x="1702.15" y="957.202">id_so : INT</text><line style="stroke:#E7E7E7;stroke-width:0.5;" x1="1683.15" x2="1881.1861" y1="964.5038" y2="964.5038"/><text fill="#FFFFFF" font-family="sans-serif" font-size="14" lengthAdjust="spacing" textLength="188.0361" x="1688.15" y="981.4989">nombre_so : VARCHAR(80)</text></g><!--class actividad--><g class="entity" data-entity="actividad" data-source-line="82" data-uid="ent0013" id="entity_actividad"><rect fill="#313139" height="113.1875" rx="2.5" ry="2.5" style="stroke:#E7E7E7;stroke-width:0.5;" width="274.0762" x="1626.13" y="669.1269"/><ellipse cx="1726.8268" cy="685.1269" fill="#2E5233" rx="11" ry="11" style="stroke:#E7E7E7;stroke-width:1;"/><path d="M1730.9362,691.1269 L1723.2174,691.1269 L1723.2174,678.7362 L1730.9362,678.7362 L1730.9362,680.8925 L1725.6705,680.8925 L1725.6705,683.5644 L1730.4362,683.5644 L1730.4362,685.7206 L1725.6705,685.7206 L1725.6705,688.9706 L1730.9362,688.9706 L1730.9362,691.1269 Z " fill="#FFFFFF"/><text fill="#FFFFFF" font-family="sans-serif" font-size="14" lengthAdjust="spacing" textLength="64.1826" x="1747.3268" y="689.9736">actividad</text><line style="stroke:#E7E7E7;stroke-width:0.5;" x1="1627.13" x2="1899.2062" y1="701.1269" y2="701.1269"/><ellipse cx="1637.13" cy="714.7753" fill="#000000" rx="3" ry="3" style="stroke:#000000;stroke-width:1;"/><text fill="#FFFFFF" font-family="sans-serif" font-size="14" lengthAdjust="spacing" textLength="120.7295" x="1646.13" y="718.122">id_actividad : INT</text><text fill="#FFFFFF" font-family="sans-serif" font-size="14" lengthAdjust="spacing" textLength="72.4063" x="1646.13" y="734.4189">id_so : INT</text><text fill="#FFFFFF" font-family="sans-serif" font-size="14" lengthAdjust="spacing" textLength="110.7012" x="1646.13" y="750.7157">id_tipo_hw : INT</text><line style="stroke:#E7E7E7;stroke-width:0.5;" x1="1627.13" x2="1899.2062" y1="758.0175" y2="758.0175"/><text fill="#FFFFFF" font-family="sans-serif" font-size="14" lengthAdjust="spacing" textLength="262.0762" x="1632.13" y="775.0126">descripcion_actividad : VARCHAR(80)</text></g><!--class tarea--><g class="entity" data-entity="tarea" data-source-line="89" data-uid="ent0014" id="entity_tarea"><rect fill="#313139" height="259.8594" rx="2.5" ry="2.5" style="stroke:#E7E7E7;stroke-width:0.5;" width="255.4346" x="982.45" y="283.3769"/><ellipse cx="1087.409" cy="299.3769" fill="#2E5233" rx="11" ry="11" style="stroke:#E7E7E7;stroke-width:1;"/><path d="M1091.5184,305.3769 L1083.7996,305.3769 L1083.7996,292.9863 L1091.5184,292.9863 L1091.5184,295.1425 L1086.2527,295.1425 L1086.2527,297.8144 L1091.0184,297.8144 L1091.0184,299.9706 L1086.2527,299.9706 L1086.2527,303.2206 L1091.5184,303.2206 L1091.5184,305.3769 Z " fill="#FFFFFF"/><text fill="#FFFFFF" font-family="sans-serif" font-size="14" lengthAdjust="spacing" textLength="37.0166" x="1107.909" y="304.2236">tarea</text><line style="stroke:#E7E7E7;stroke-width:0.5;" x1="983.45" x2="1236.8846" y1="315.3769" y2="315.3769"/><ellipse cx="993.45" cy="329.0253" fill="#000000" rx="3" ry="3" style="stroke:#000000;stroke-width:1;"/><text fill="#FFFFFF" font-family="sans-serif" font-size="14" lengthAdjust="spacing" textLength="93.5635" x="1002.45" y="332.372">id_tarea : INT</text><text fill="#FFFFFF" font-family="sans-serif" font-size="14" lengthAdjust="spacing" textLength="177.8848" x="1002.45" y="348.6689">fecha_inicio_tarea : DATE</text><text fill="#FFFFFF" font-family="sans-serif" font-size="14" lengthAdjust="spacing" textLength="158.7715" x="1002.45" y="364.9657">fecha_fin_tarea : DATE</text><text fill="#FFFFFF" font-family="sans-serif" font-size="14" lengthAdjust="spacing" textLength="166.8174" x="1002.45" y="381.2626">hora_inicio_tarea : TIME</text><text fill="#FFFFFF" font-family="sans-serif" font-size="14" lengthAdjust="spacing" textLength="147.7041" x="1002.45" y="397.5595">hora_fin_tarea : TIME</text><text fill="#FFFFFF" font-family="sans-serif" font-size="14" lengthAdjust="spacing" textLength="120.4561" x="1002.45" y="413.8564">rut_persona : INT</text><text fill="#FFFFFF" font-family="sans-serif" font-size="14" lengthAdjust="spacing" textLength="134.5449" x="1002.45" y="430.1532">id_area_cobro : INT</text><text fill="#FFFFFF" font-family="sans-serif" font-size="14" lengthAdjust="spacing" textLength="156.1465" x="1002.45" y="446.4501">id_informe : VARCHAR</text><text fill="#FFFFFF" font-family="sans-serif" font-size="14" lengthAdjust="spacing" textLength="120.7295" x="1002.45" y="462.747">id_actividad : INT</text><text fill="#FFFFFF" font-family="sans-serif" font-size="14" lengthAdjust="spacing" textLength="110.9541" x="1002.45" y="479.0439">rut_cliente : INT</text><text fill="#FFFFFF" font-family="sans-serif" font-size="14" lengthAdjust="spacing" textLength="147.9912" x="1002.45" y="495.3407">id_estado_tarea : INT</text><text fill="#FFFFFF" font-family="sans-serif" font-size="14" lengthAdjust="spacing" textLength="127.3945" x="1002.45" y="511.6376">id_tipo_tarea : INT</text><line style="stroke:#E7E7E7;stroke-width:0.5;" x1="983.45" x2="1236.8846" y1="518.9394" y2="518.9394"/><text fill="#FFFFFF" font-family="sans-serif" font-size="14" lengthAdjust="spacing" textLength="243.4346" x="988.45" y="535.9345">comentario_tarea : VARCHAR(250)</text></g><!--link persona to perfil_usuario--><g class="link" data-entity-1="persona" data-entity-2="perfil_usuario" data-source-line="106" data-uid="lnk15" id="link_persona_perfil_usuario"><path codeLine="106" d="M2089.17,839.6169 C2089.17,866.7569 2089.17,878.3569 2089.17,899.7969" fill="none" id="persona-perfil_usuario" style="stroke:#E7E7E7;stroke-width:1;stroke-dasharray:7.0,7.0;"/><line style="stroke:#E7E7E7;stroke-width:1;" x1="2089.17" x2="2083.17" y1="839.6169" y2="831.6169"/><line style="stroke:#E7E7E7;stroke-width:1;" x1="2089.17" x2="2095.17" y1="839.6169" y2="831.6169"/><line style="stroke:#E7E7E7;stroke-width:1;" x1="2089.17" x2="2089.17" y1="839.6169" y2="831.6169"/><line style="stroke:#E7E7E7;stroke-width:1;" x1="2085.17" x2="2093.17" y1="841.6169" y2="841.6169"/><line style="stroke:#E7E7E7;stroke-width:1;" x1="2093.17" x2="2085.17" y1="903.7969" y2="903.7969"/><line style="stroke:#E7E7E7;stroke-width:1;" x1="2093.17" x2="2085.17" y1="900.7969" y2="900.7969"/><line style="stroke:#E7E7E7;stroke-width:1;" x1="2089.17" x2="2089.17" y1="899.7969" y2="907.7969"/><polygon fill="#FFFFFF" points="2094.17,874.7733,2097.1089,865.7282,2091.2311,865.7282,2094.17,874.7733" style="stroke:#FFFFFF;stroke-width:1;"/><text fill="#FFFFFF" font-family="sans-serif" font-size="13" lengthAdjust="spacing" textLength="78.1714" x="2103.17" y="874.2738">pertenece a</text></g><!--link local to cliente--><g class="link" data-entity-1="local" data-entity-2="cliente" data-source-line="107" data-uid="lnk16" id="link_local_cliente"><path codeLine="107" d="M131.17,502.6469 C131.17,560.4869 131.17,620.5769 131.17,669.0769" fill="none" id="local-cliente" style="stroke:#E7E7E7;stroke-width:1;stroke-dasharray:7.0,7.0;"/><line style="stroke:#E7E7E7;stroke-width:1;" x1="131.17" x2="125.17" y1="502.6469" y2="494.6469"/><line style="stroke:#E7E7E7;stroke-width:1;" x1="131.17" x2="137.17" y1="502.6469" y2="494.6469"/><line style="stroke:#E7E7E7;stroke-width:1;" x1="131.17" x2="131.17" y1="502.6469" y2="494.6469"/><line style="stroke:#E7E7E7;stroke-width:1;" x1="127.17" x2="135.17" y1="504.6469" y2="504.6469"/><line style="stroke:#E7E7E7;stroke-width:1;" x1="135.17" x2="127.17" y1="673.0769" y2="673.0769"/><line style="stroke:#E7E7E7;stroke-width:1;" x1="135.17" x2="127.17" y1="670.0769" y2="670.0769"/><line style="stroke:#E7E7E7;stroke-width:1;" x1="131.17" x2="131.17" y1="669.0769" y2="677.0769"/><polygon fill="#FFFFFF" points="136.17,586.8033,139.1089,577.7582,133.2311,577.7582,136.17,586.8033" style="stroke:#FFFFFF;stroke-width:1;"/><text fill="#FFFFFF" font-family="sans-serif" font-size="13" lengthAdjust="spacing" textLength="78.1714" x="145.17" y="586.3038">pertenece a</text></g><!--link contacto_local to local--><g class="link" data-entity-1="contacto_local" data-entity-2="local" data-source-line="108" data-uid="lnk17" id="link_contacto_local_local"><path codeLine="108" d="M131.17,214.7569 C131.17,253.9069 131.17,284.8569 131.17,323.9969" fill="none" id="contacto_local-local" style="stroke:#E7E7E7;stroke-width:1;stroke-dasharray:7.0,7.0;"/><line style="stroke:#E7E7E7;stroke-width:1;" x1="131.17" x2="125.17" y1="214.7569" y2="206.7569"/><line style="stroke:#E7E7E7;stroke-width:1;" x1="131.17" x2="137.17" y1="214.7569" y2="206.7569"/><line style="stroke:#E7E7E7;stroke-width:1;" x1="131.17" x2="131.17" y1="214.7569" y2="206.7569"/><line style="stroke:#E7E7E7;stroke-width:1;" x1="127.17" x2="135.17" y1="216.7569" y2="216.7569"/><line style="stroke:#E7E7E7;stroke-width:1;" x1="135.17" x2="127.17" y1="327.9969" y2="327.9969"/><line style="stroke:#E7E7E7;stroke-width:1;" x1="135.17" x2="127.17" y1="324.9969" y2="324.9969"/><line style="stroke:#E7E7E7;stroke-width:1;" x1="131.17" x2="131.17" y1="323.9969" y2="331.9969"/><polygon fill="#FFFFFF" points="136.17,249.9433,139.1089,240.8982,133.2311,240.8982,136.17,249.9433" style="stroke:#FFFFFF;stroke-width:1;"/><text fill="#FFFFFF" font-family="sans-serif" font-size="13" lengthAdjust="spacing" textLength="78.1714" x="145.17" y="249.4438">pertenece a</text></g><!--link actividad to sistema_operativo--><g class="link" data-entity-1="actividad" data-entity-2="sistema_operativo" data-source-line="109" data-uid="lnk18" id="link_actividad_sistema_operativo"><path codeLine="109" d="M1768.6751,790.6875 C1772.0351,829.7775 1775.0747,865.0663 1778.0747,899.9563" fill="none" id="actividad-sistema_operativo" style="stroke:#E7E7E7;stroke-width:1;stroke-dasharray:7.0,7.0;"/><line style="stroke:#E7E7E7;stroke-width:1;" x1="1768.6751" x2="1762.012" y1="790.6875" y2="783.2307"/><line style="stroke:#E7E7E7;stroke-width:1;" x1="1768.6751" x2="1773.968" y1="790.6875" y2="782.203"/><line style="stroke:#E7E7E7;stroke-width:1;" x1="1768.6751" x2="1767.99" y1="790.6875" y2="782.7169"/><line style="stroke:#E7E7E7;stroke-width:1;" x1="1764.8611" x2="1772.8317" y1="793.0227" y2="792.3376"/><line style="stroke:#E7E7E7;stroke-width:1;" x1="1782.4026" x2="1774.432" y1="903.5989" y2="904.2843"/><line style="stroke:#E7E7E7;stroke-width:1;" x1="1782.1456" x2="1774.175" y1="900.6099" y2="901.2953"/><line style="stroke:#E7E7E7;stroke-width:1;" x1="1778.0747" x2="1778.76" y1="899.9563" y2="907.9269"/><polygon fill="#FFFFFF" points="1780.5985,874.7549,1782.7514,865.4912,1776.8952,865.995,1780.5985,874.7549" style="stroke:#FFFFFF;stroke-width:1;"/><text fill="#FFFFFF" font-family="sans-serif" font-size="13" lengthAdjust="spacing" textLength="22.9785" x="1789.17" y="874.2738">usa</text></g><!--link actividad to tipo_hardware--><g class="link" data-entity-1="actividad" data-entity-2="tipo_hardware" data-source-line="110" data-uid="lnk19" id="link_actividad_tipo_hardware"><path codeLine="110" d="M1694.2947,788.0363 C1650.3847,827.1263 1604.7958,867.7181 1565.5958,902.6081" fill="none" id="actividad-tipo_hardware" style="stroke:#E7E7E7;stroke-width:1;stroke-dasharray:7.0,7.0;"/><line style="stroke:#E7E7E7;stroke-width:1;" x1="1694.2947" x2="1696.2805" y1="788.0363" y2="778.2354"/><line style="stroke:#E7E7E7;stroke-width:1;" x1="1694.2947" x2="1704.2595" y1="788.0363" y2="787.1983"/><line style="stroke:#E7E7E7;stroke-width:1;" x1="1694.2947" x2="1700.27" y1="788.0363" y2="782.7169"/><line style="stroke:#E7E7E7;stroke-width:1;" x1="1690.1412" x2="1695.4606" y1="786.3785" y2="792.3538"/><line style="stroke:#E7E7E7;stroke-width:1;" x1="1565.2673" x2="1559.9485" y1="908.2554" y2="902.2796"/><line style="stroke:#E7E7E7;stroke-width:1;" x1="1567.5082" x2="1562.1895" y1="906.2608" y2="900.285"/><line style="stroke:#E7E7E7;stroke-width:1;" x1="1565.5958" x2="1559.62" y1="902.6081" y2="907.9269"/><polygon fill="#FFFFFF" points="1611.4354,873.0979,1620.1455,869.2787,1616.2372,864.8885,1611.4354,873.0979" style="stroke:#FFFFFF;stroke-width:1;"/><text fill="#FFFFFF" font-family="sans-serif" font-size="13" lengthAdjust="spacing" textLength="54.7866" x="1624.17" y="874.2738">requiere</text></g><!--link tarea to persona--><g class="link" data-entity-1="tarea" data-entity-2="persona" data-source-line="111" data-uid="lnk20" id="link_tarea_persona"><path codeLine="111" d="M1246.0686,436.0952 C1408.6586,464.7452 1687.9,523.1469 1918.17,620.2369 C1923.78,622.5969 1922.182,621.7193 1927.832,624.3793" fill="none" id="tarea-persona" style="stroke:#E7E7E7;stroke-width:1;stroke-dasharray:7.0,7.0;"/><line style="stroke:#E7E7E7;stroke-width:1;" x1="1246.0686" x2="1237.1488" y1="436.0952" y2="440.6158"/><line style="stroke:#E7E7E7;stroke-width:1;" x1="1246.0686" x2="1239.2312" y1="436.0952" y2="428.7979"/><line style="stroke:#E7E7E7;stroke-width:1;" x1="1246.0686" x2="1238.19" y1="436.0952" y2="434.7069"/><line style="stroke:#E7E7E7;stroke-width:1;" x1="1247.3441" x2="1248.7324" y1="440.3816" y2="432.5029"/><line style="stroke:#E7E7E7;stroke-width:1;" x1="1933.1548" x2="1929.7472" y1="622.4641" y2="629.7021"/><line style="stroke:#E7E7E7;stroke-width:1;" x1="1930.4406" x2="1927.033" y1="621.1862" y2="628.4242"/><line style="stroke:#E7E7E7;stroke-width:1;" x1="1927.832" x2="1935.07" y1="624.3793" y2="627.7869"/><polygon fill="#FFFFFF" points="1842.9896,583.1343,1835.0532,577.8936,1833.4885,583.5593,1842.9896,583.1343" style="stroke:#FFFFFF;stroke-width:1;"/><text fill="#FFFFFF" font-family="sans-serif" font-size="13" lengthAdjust="spacing" textLength="85.2236" x="1847.17" y="586.3038">realizada por</text></g><!--link tarea to area_cobro--><g class="link" data-entity-1="tarea" data-entity-2="area_cobro" data-source-line="112" data-uid="lnk21" id="link_tarea_area_cobro"><path codeLine="112" d="M976.3926,545.7228 C923.5226,597.6528 877.4379,642.9315 840.1479,679.5515" fill="none" id="tarea-area_cobro" style="stroke:#E7E7E7;stroke-width:1;stroke-dasharray:7.0,7.0;"/><line style="stroke:#E7E7E7;stroke-width:1;" x1="976.3926" x2="977.8956" y1="545.7228" y2="535.8364"/><line style="stroke:#E7E7E7;stroke-width:1;" x1="976.3926" x2="986.3044" y1="545.7228" y2="544.3974"/><line style="stroke:#E7E7E7;stroke-width:1;" x1="976.3926" x2="982.1" y1="545.7228" y2="540.1169"/><line style="stroke:#E7E7E7;stroke-width:1;" x1="972.1629" x2="977.7687" y1="544.2706" y2="549.9779"/><line style="stroke:#E7E7E7;stroke-width:1;" x1="840.0966" x2="834.4913" y1="685.2082" y2="679.5003"/><line style="stroke:#E7E7E7;stroke-width:1;" x1="842.2371" x2="836.6317" y1="683.1061" y2="677.3982"/><line style="stroke:#E7E7E7;stroke-width:1;" x1="840.1479" x2="834.44" y1="679.5515" y2="685.1569"/><polygon fill="#FFFFFF" points="944.603,585.307,953.1152,581.0653,948.9963,576.872,944.603,585.307" style="stroke:#FFFFFF;stroke-width:1;"/><text fill="#FFFFFF" font-family="sans-serif" font-size="13" lengthAdjust="spacing" textLength="69.7354" x="957.17" y="586.3038">asociada a</text></g><!--link tarea to informe--><g class="link" data-entity-1="tarea" data-entity-2="informe" data-source-line="113" data-uid="lnk22" id="link_tarea_informe"><path codeLine="113" d="M974.7543,469.3513 C879.3343,509.0713 753.82,563.4269 640.17,620.2369 C620.21,630.2169 606.3584,637.4491 586.1384,648.5791" fill="none" id="tarea-informe" style="stroke:#E7E7E7;stroke-width:1;stroke-dasharray:7.0,7.0;"/><line style="stroke:#E7E7E7;stroke-width:1;" x1="974.7543" x2="979.8342" y1="469.3513" y2="460.7376"/><line style="stroke:#E7E7E7;stroke-width:1;" x1="974.7543" x2="984.4458" y1="469.3513" y2="471.8161"/><line style="stroke:#E7E7E7;stroke-width:1;" x1="974.7543" x2="982.14" y1="469.3513" y2="466.2769"/><line style="stroke:#E7E7E7;stroke-width:1;" x1="971.3707" x2="974.4451" y1="466.427" y2="473.8127"/><line style="stroke:#E7E7E7;stroke-width:1;" x1="584.5631" x2="580.7053" y1="654.0122" y2="647.0038"/><line style="stroke:#E7E7E7;stroke-width:1;" x1="587.1912" x2="583.3335" y1="652.5656" y2="645.5571"/><line style="stroke:#E7E7E7;stroke-width:1;" x1="586.1384" x2="579.13" y1="648.5791" y2="652.4369"/><polygon fill="#FFFFFF" points="729.6296,583.8973,739.0741,582.778,736.6124,577.4404,729.6296,583.8973" style="stroke:#FFFFFF;stroke-width:1;"/><text fill="#FFFFFF" font-family="sans-serif" font-size="13" lengthAdjust="spacing" textLength="45.7983" x="743.17" y="586.3038">genera</text></g><!--link tarea to actividad--><g class="link" data-entity-1="tarea" data-entity-2="actividad" data-source-line="114" data-uid="lnk23" id="link_tarea_actividad"><path codeLine="114" d="M1245.736,461.9046 C1348.276,499.7146 1486.99,555.1869 1608.17,620.2369 C1634.62,634.4269 1655.5818,647.4977 1680.0118,664.1677" fill="none" id="tarea-actividad" style="stroke:#E7E7E7;stroke-width:1;stroke-dasharray:7.0,7.0;"/><line style="stroke:#E7E7E7;stroke-width:1;" x1="1245.736" x2="1236.1542" y1="461.9046" y2="464.7664"/><line style="stroke:#E7E7E7;stroke-width:1;" x1="1245.736" x2="1240.3058" y1="461.9046" y2="453.5074"/><line style="stroke:#E7E7E7;stroke-width:1;" x1="1245.736" x2="1238.23" y1="461.9046" y2="459.1369"/><line style="stroke:#E7E7E7;stroke-width:1;" x1="1246.2286" x2="1248.9963" y1="466.3495" y2="458.8435"/><line style="stroke:#E7E7E7;stroke-width:1;" x1="1685.5705" x2="1681.0614" y1="663.1182" y2="669.7264"/><line style="stroke:#E7E7E7;stroke-width:1;" x1="1683.0924" x2="1678.5833" y1="661.4273" y2="668.0355"/><line style="stroke:#E7E7E7;stroke-width:1;" x1="1680.0118" x2="1686.62" y1="664.1677" y2="668.6769"/><polygon fill="#FFFFFF" points="1552.7025,583.9143,1545.7439,577.4313,1543.2623,582.7596,1552.7025,583.9143" style="stroke:#FFFFFF;stroke-width:1;"/><text fill="#FFFFFF" font-family="sans-serif" font-size="13" lengthAdjust="spacing" textLength="48.0581" x="1557.17" y="586.3038">ejecuta</text></g><!--link tarea to cliente--><g class="link" data-entity-1="tarea" data-entity-2="cliente" data-source-line="115" data-uid="lnk24" id="link_tarea_cliente"><path codeLine="115" d="M974.1358,430.4658 C804.6058,453.9758 507.46,507.7969 270.17,620.2369 C239.34,634.8369 214.8531,651.8549 190.1731,671.9549" fill="none" id="tarea-cliente" style="stroke:#E7E7E7;stroke-width:1;stroke-dasharray:7.0,7.0;"/><line style="stroke:#E7E7E7;stroke-width:1;" x1="974.1358" x2="981.2358" y1="430.4658" y2="423.4238"/><line style="stroke:#E7E7E7;stroke-width:1;" x1="974.1358" x2="982.8842" y1="430.4658" y2="435.31"/><line style="stroke:#E7E7E7;stroke-width:1;" x1="974.1358" x2="982.06" y1="430.4658" y2="429.3669"/><line style="stroke:#E7E7E7;stroke-width:1;" x1="971.6053" x2="972.7042" y1="426.7784" y2="434.7026"/><line style="stroke:#E7E7E7;stroke-width:1;" x1="189.5975" x2="184.5456" y1="677.5824" y2="671.3794"/><line style="stroke:#E7E7E7;stroke-width:1;" x1="191.9236" x2="186.8717" y1="675.688" y2="669.4849"/><line style="stroke:#E7E7E7;stroke-width:1;" x1="190.1731" x2="183.97" y1="671.9549" y2="677.0069"/><polygon fill="#FFFFFF" points="378.3916,583.2752,387.901,583.4212,386.1707,577.8038,378.3916,583.2752" style="stroke:#FFFFFF;stroke-width:1;"/><text fill="#FFFFFF" font-family="sans-serif" font-size="13" lengthAdjust="spacing" textLength="29.5293" x="392.17" y="586.3038">para</text></g><!--link tarea to estado_tarea--><g class="link" data-entity-1="tarea" data-entity-2="estado_tarea" data-source-line="116" data-uid="lnk25" id="link_tarea_estado_tarea"><path codeLine="116" d="M1244.0573,540.2479 C1300.7673,593.5879 1351.9536,641.7348 1392.2336,679.6348" fill="none" id="tarea-estado_tarea" style="stroke:#E7E7E7;stroke-width:1;stroke-dasharray:7.0,7.0;"/><line style="stroke:#E7E7E7;stroke-width:1;" x1="1244.0573" x2="1234.1192" y1="540.2479" y2="539.1374"/><line style="stroke:#E7E7E7;stroke-width:1;" x1="1244.0573" x2="1242.3408" y1="540.2479" y2="530.3964"/><line style="stroke:#E7E7E7;stroke-width:1;" x1="1244.0573" x2="1238.23" y1="540.2479" y2="534.7669"/><line style="stroke:#E7E7E7;stroke-width:1;" x1="1242.7737" x2="1248.2547" y1="544.5319" y2="538.7045"/><line style="stroke:#E7E7E7;stroke-width:1;" x1="1397.8879" x2="1392.4058" y1="679.4626" y2="685.289"/><line style="stroke:#E7E7E7;stroke-width:1;" x1="1395.703" x2="1390.2209" y1="677.4069" y2="683.2332"/><line style="stroke:#E7E7E7;stroke-width:1;" x1="1392.2336" x2="1398.06" y1="679.6348" y2="685.1169"/><polygon fill="#FFFFFF" points="1303.8119,585.2292,1299.2373,576.891,1295.21,581.1723,1303.8119,585.2292" style="stroke:#FFFFFF;stroke-width:1;"/><text fill="#FFFFFF" font-family="sans-serif" font-size="13" lengthAdjust="spacing" textLength="81.1167" x="1309.17" y="586.3038">tiene estado</text></g><!--link tarea to tipo_tarea--><g class="link" data-entity-1="tarea" data-entity-2="tipo_tarea" data-source-line="117" data-uid="lnk26" id="link_tarea_tipo_tarea"><path codeLine="117" d="M1110.17,551.6969 C1110.17,602.6069 1110.17,641.3169 1110.17,677.1069" fill="none" id="tarea-tipo_tarea" style="stroke:#E7E7E7;stroke-width:1;stroke-dasharray:7.0,7.0;"/><line style="stroke:#E7E7E7;stroke-width:1;" x1="1110.17" x2="1104.17" y1="551.6969" y2="543.6969"/><line style="stroke:#E7E7E7;stroke-width:1;" x1="1110.17" x2="1116.17" y1="551.6969" y2="543.6969"/><line style="stroke:#E7E7E7;stroke-width:1;" x1="1110.17" x2="1110.17" y1="551.6969" y2="543.6969"/><line style="stroke:#E7E7E7;stroke-width:1;" x1="1106.17" x2="1114.17" y1="553.6969" y2="553.6969"/><line style="stroke:#E7E7E7;stroke-width:1;" x1="1114.17" x2="1106.17" y1="681.1069" y2="681.1069"/><line style="stroke:#E7E7E7;stroke-width:1;" x1="1114.17" x2="1106.17" y1="678.1069" y2="678.1069"/><line style="stroke:#E7E7E7;stroke-width:1;" x1="1110.17" x2="1110.17" y1="677.1069" y2="685.1069"/><polygon fill="#FFFFFF" points="1115.17,586.8033,1118.1089,577.7582,1112.2311,577.7582,1115.17,586.8033" style="stroke:#FFFFFF;stroke-width:1;"/><text fill="#FFFFFF" font-family="sans-serif" font-size="13" lengthAdjust="spacing" textLength="24.9146" x="1124.17" y="586.3038">tipo</text></g><!--SRC=[ZLPBRjim4Dth5DmbAT30IH6WyCA0qGPj5kd2CBeL66baiv18bQGSj7MEr5FqOXrPelXLufqrxt66y-P3Nv3jlx-wgmKHRS44ftMccQw1F8eIqBg1cWvsyfvyMTzlimmuCdwH5cJ5whnJ7PLCa3yP8UzOcGVc9NdujaM8bA0AoKunOixtzURJr_NcykFYAdjn8oYCFBYMdSwDONBQ6yk3OpUERgvwc8lcIK82_h0uuRI5kcQbo5kgGN9n1hDvYrb1iQSvupi9ga_jytfxtzkXePXo2-gafNFJnN1km0iXMo6fPWUHu6YeeHBSW-vEo9pmLioYPlWBh9Z648ffxRwORW4ZZXEe5WKcQDfX-9fYZ1KnrZ31aaae2js7cACKekauZU0xrq5_ddSDI176bx1BE3VP-v8usWckQQ6DDvERCKVfES1S7yrJJ2D4-Ctjg02LkzSSc2v9-fZQnHN6Pifu9MG3KuhcsvCAIu1qR58HuvUtOoKg9XkQ0-zlIp5Xh0kScYU-yAZQMTn9mBFOWrHlKwq0L095uPwatMYEARdDF3oU1yrQaUkUD7bqJ4cF7kuDW7KBIlSP-OuzOz9rm7379xZodiho6Md-hVVFhrpv1APtkM9AOsVd0jVKiDwCMnNFZvf_4x2VsO6LjBJbcIpfwZYmwtAO0ZTubA8ZY5y-NrwpyHd6cp2pzWUmOZn2zhZdmrFRXqUBkOSCC8wUP749pU0b7ygPDfwRyBIioLTZjkjIVOwANan_AK1bvfuln-lhuv54JnWQD70SMaB9AXjMriYr5_59mQuUsMRR-LoRuqYBktH9EfMa-ZEon9VbPyS0Vwwo8MERqrWADDRiDoqfmIS-f7dLeKeKh2VIa6QhjSCqP8IxLOCVK7GweZZ2qTX1K4kDN1YD8TMhRlz1Lly1]--></g></svg>